<?xml version="1.0" standalone="no"?>
<!DOCTYPE svg PUBLIC "-//W3C//DTD SVG 20010904//EN"
 "http://www.w3.org/TR/2001/REC-SVG-20010904/DTD/svg10.dtd">
<svg version="1.0" xmlns="http://www.w3.org/2000/svg"
 width="512.000000pt" height="512.000000pt" viewBox="0 0 512.000000 512.000000"
 preserveAspectRatio="xMidYMid meet">

<g transform="translate(0.000000,512.000000) scale(0.100000,-0.100000)"
fill="#000000" stroke="none">
<path d="M2484 4981 c-18 -11 -43 -34 -57 -53 -13 -18 -203 -330 -422 -693
-219 -363 -401 -663 -404 -667 -4 -4 -71 -21 -149 -38 l-142 -30 -510 0 c-436
0 -515 -2 -547 -15 -59 -24 -77 -57 -83 -149 l-5 -79 -46 -13 c-55 -16 -105
-59 -115 -98 -4 -15 -1 -47 6 -69 12 -44 29 -61 457 -481 l162 -159 3 -301 c3
-334 4 -335 71 -376 29 -18 51 -20 230 -20 l198 0 -6 -32 c-23 -137 -195
-1410 -195 -1445 0 -101 46 -148 138 -141 50 4 139 45 775 356 l717 352 718
-352 c635 -311 724 -352 774 -356 92 -7 138 40 138 140 0 34 -173 1314 -195
1446 -6 30 -4 32 25 32 42 0 84 23 112 62 21 30 23 46 27 175 l3 142 87 85
c76 76 91 86 131 91 253 33 420 134 504 306 42 86 66 174 66 239 0 43 4 49 66
110 95 93 121 158 89 220 -21 41 -72 68 -169 89 -81 18 -90 22 -149 78 -77 71
-141 107 -243 134 -70 18 -122 22 -434 29 -333 7 -362 9 -470 34 -63 15 -117
30 -121 34 -3 4 -185 304 -404 667 -219 363 -409 675 -422 693 -36 48 -80 72
-133 72 -27 0 -58 -8 -76 -19z m268 -1616 c264 -47 454 -219 530 -480 20 -71
23 -100 22 -265 0 -156 -4 -197 -21 -261 -99 -359 -404 -542 -832 -500 -226
22 -344 71 -466 195 -140 141 -193 278 -202 519 -10 258 42 437 171 584 165
189 465 267 798 208z m-1054 -187 l-3 -183 -232 -3 -233 -2 0 -555 0 -555
-230 0 -230 0 0 555 0 555 -232 2 -233 3 -3 183 -2 182 700 0 700 0 -2 -182z
m2766 167 c233 -44 349 -190 349 -440 0 -252 -126 -410 -367 -459 -54 -11
-132 -16 -252 -16 l-174 0 0 -275 0 -275 -230 0 -230 0 0 740 0 740 414 0
c321 0 431 -3 490 -15z"/>
<path d="M2458 3027 c-94 -27 -159 -90 -194 -189 -35 -100 -34 -339 3 -447 40
-119 144 -192 274 -192 150 -1 234 57 284 196 26 75 33 318 11 405 -28 108
-92 187 -178 219 -48 18 -150 22 -200 8z"/>
<path d="M4020 2895 l0 -167 113 4 c126 4 173 20 209 71 51 72 23 191 -56 231
-31 15 -66 21 -153 24 l-113 5 0 -168z"/>
</g>
</svg>
